<?xml version="1.0" encoding="utf-8"?>
<!-- Generator: Adobe Illustrator 15.1.0, SVG Export Plug-In . SVG Version: 6.00 Build 0)  -->
<!DOCTYPE svg PUBLIC "-//W3C//DTD SVG 1.1//EN" "http://www.w3.org/Graphics/SVG/1.1/DTD/svg11.dtd">
<svg version="1.1" id="Layer_1" xmlns="http://www.w3.org/2000/svg" xmlns:xlink="http://www.w3.org/1999/xlink" x="0px" y="0px"
	 width="595.3px" height="841.9px" viewBox="0 0 595.3 841.9" enable-background="new 0 0 595.3 841.9" xml:space="preserve">
<line fill="none" stroke="#FF00FF" stroke-width="2" stroke-linecap="round" stroke-linejoin="round" stroke-miterlimit="10" x1="489.961" y1="456.464" x2="489.819" y2="480.981"/>
<polyline fill="none" stroke="#FF00FF" stroke-width="2" stroke-linecap="round" stroke-linejoin="round" stroke-miterlimit="10" points="
	500.505,456.464 500.505,466.482 493.761,466.482 493.761,456.464 "/>
<polyline fill="none" stroke="#FF00FF" stroke-width="2" stroke-linecap="round" stroke-linejoin="round" stroke-miterlimit="10" points="
	500.505,480.981 500.505,470.71 493.761,470.71 493.761,480.981 "/>
<line fill="none" stroke="#FF00FF" stroke-width="2" stroke-linecap="round" stroke-linejoin="round" stroke-miterlimit="10" x1="467.205" y1="456.633" x2="486.091" y2="456.633"/>
<polyline fill="none" stroke="#FF00FF" stroke-width="2" stroke-linecap="round" stroke-linejoin="round" stroke-miterlimit="10" points="
	486.091,461.113 480.765,461.113 480.589,480.855 "/>
<path fill="none" stroke="#FF00FF" stroke-width="2" stroke-linecap="round" stroke-linejoin="round" stroke-miterlimit="10" d="
	M449.738,481.573c0,0,0.141-20.375,0.141-21.137c0-1.648,0.781-3.466,2.379-3.805c1.598-0.338,2.521,0.549,3.444,2.283
	c0.923,1.734,8.413,19.191,8.2,18.051v-20.461"/>
<path fill="none" stroke="#FF00FF" stroke-width="2" stroke-linecap="round" stroke-linejoin="round" stroke-miterlimit="10" d="
	M453.003,481.532l0.177-19.953c0,0,6.817,16.36,7.776,18.093s2.061,2.705,3.445,2.282c1.385-0.422,2.447-2.451,2.555-4.101
	c0.107-1.648,0.178-10.948,0.178-16.74h9.693l-0.18,19.742"/>
<path fill="none" stroke="#FF00FF" stroke-width="2" stroke-linecap="round" stroke-linejoin="round" stroke-miterlimit="10" d="
	M524.721,456.421h-8.661c0,0-6.711-0.718-6.746,6.34c-0.037,7.061,3.94,8.244,5.076,8.287h3.764c0,0,2.414,0.043,2.414,2.621
	s-2.521,2.875-2.521,2.875h-13.813v-20.08"/>
<path fill="none" stroke="#FF00FF" stroke-width="2" stroke-linecap="round" stroke-linejoin="round" stroke-miterlimit="10" d="
	M524.686,460.606h-9.267c0,0-2.414,0-2.414,3.127c0,3.129,2.484,2.748,2.484,2.748h3.552c0,0,5.29,0,5.29,6.807
	c0.035,7.482-5.29,7.652-5.29,7.652h-14.808"/>
<path fill="none" stroke="#FF00FF" stroke-width="2" stroke-linecap="round" stroke-linejoin="round" stroke-miterlimit="10" d="
	M431.804,481.362l6.07-12.048l-4.169-8.708h-13.768c0,0-2.413,0-2.413,3.127c0,3.129,2.484,2.748,2.484,2.748h3.55
	c0,0,5.29,0,5.29,6.807c0.035,7.482-5.29,7.652-5.29,7.652h-10.651"/>
<path fill="none" stroke="#FF00FF" stroke-width="2" stroke-linecap="round" stroke-linejoin="round" stroke-miterlimit="10" d="
	M444.443,456.633l-4.545,8.751l-4.046-8.982l-15.312,0.02c0,0-6.709-0.718-6.744,6.34c-0.037,7.061,3.976,8.244,5.111,8.287h3.764
	c0,0,2.414,0.043,2.414,2.621s-2.521,2.875-2.521,2.875h-9.692"/>
<line fill="none" stroke="#FF00FF" stroke-width="2" stroke-linecap="round" stroke-linejoin="round" stroke-miterlimit="10" x1="448.49" y1="456.633" x2="435.85" y2="481.362"/>
<line fill="none" stroke="#FF00FF" stroke-width="2" stroke-linecap="round" stroke-linejoin="round" stroke-miterlimit="10" x1="328.025" y1="456.971" x2="328.025" y2="481.192"/>
<path fill="none" stroke="#FF00FF" stroke-width="2" stroke-linecap="round" stroke-linejoin="round" stroke-miterlimit="10" d="
	M311.159,456.971c0,0-12.259-0.126-15.134,0.212c-2.24,0.254-10.23,2.537-10.23,12.047c0,9.514,9.3,11.922,12.174,12.133
	c2.155,0.17,6.257,0,6.257,0v-10.821"/>
<path fill="none" stroke="#FF00FF" stroke-width="2" stroke-linecap="round" stroke-linejoin="round" stroke-miterlimit="10" d="
	M311.159,481.192v-19.699c0,0-10.146,0-13.147,0.127s-7.566,1.987-7.948,7.145c-0.38,5.156,4.27,7.186,5.918,7.609
	c1.648,0.422,3.932,0.336,3.932,0.336l0.084-6.17"/>
<polyline fill="none" stroke="#FF00FF" stroke-width="2" stroke-linecap="round" stroke-linejoin="round" stroke-miterlimit="10" points="
	323.714,456.971 323.714,466.989 315.724,466.989 315.724,456.971 "/>
<polyline fill="none" stroke="#FF00FF" stroke-width="2" stroke-linecap="round" stroke-linejoin="round" stroke-miterlimit="10" points="
	323.714,481.192 323.714,471.217 315.724,471.217 315.724,481.192 "/>
<line fill="none" stroke="#FF00FF" stroke-width="2" stroke-linecap="round" stroke-linejoin="round" stroke-miterlimit="10" x1="332.844" y1="457.267" x2="350.261" y2="457.267"/>
<polyline fill="none" stroke="#FF00FF" stroke-width="2" stroke-linecap="round" stroke-linejoin="round" stroke-miterlimit="10" points="
	332.844,461.748 339.185,461.748 339.185,481.192 "/>
<polyline fill="none" stroke="#FF00FF" stroke-width="2" stroke-linecap="round" stroke-linejoin="round" stroke-miterlimit="10" points="
	350.261,461.748 343.878,461.748 343.878,481.192 "/>
<line fill="none" stroke="#FF00FF" stroke-width="2" stroke-linecap="round" stroke-linejoin="round" stroke-miterlimit="10" x1="276.663" y1="457.14" x2="276.663" y2="481.024"/>
<line fill="none" stroke="#FF00FF" stroke-width="2" stroke-linecap="round" stroke-linejoin="round" stroke-miterlimit="10" x1="280.849" y1="457.14" x2="280.849" y2="481.024"/>
<path fill="none" stroke="#FF00FF" stroke-width="2" stroke-linecap="round" stroke-linejoin="round" stroke-miterlimit="10" d="
	M257.049,456.591v17.162c0,0-0.212,7.439,8.666,7.439h5.58"/>
<path fill="none" stroke="#FF00FF" stroke-width="2" stroke-linecap="round" stroke-linejoin="round" stroke-miterlimit="10" d="
	M260.684,456.591v14.457c0,0-0.465,6.256,5.326,6.256h5.326"/>
<path fill="none" stroke="#FF00FF" stroke-width="2" stroke-linecap="round" stroke-linejoin="round" stroke-miterlimit="10" d="
	M81.911,455.703v17.924c0,0-0.211,7.566,8.836,7.566l10.204-0.126l7.524-19.912l6.861,20.166h20.084c0,0,6.468-0.17,6.425-7.779
	c0-6.934-6.425-6.934-6.425-6.934h-4.312c0,0-3.001,0.382-3.001-2.789c0-3.17,2.917-3.17,2.917-3.17h11.245"/>
<path fill="none" stroke="#FF00FF" stroke-width="2" stroke-linecap="round" stroke-linejoin="round" stroke-miterlimit="10" d="
	M120.396,481.235"/>
<path fill="none" stroke="#FF00FF" stroke-width="2" stroke-linecap="round" stroke-linejoin="round" stroke-miterlimit="10" d="
	M85.632,455.703v15.134c0,0-0.465,6.384,5.412,6.384l6.949-0.086c2.367-6.129,6.34-16.188,7.44-19.022
	c1.099-2.832,5.114-2.875,6.087-0.422c0.688,1.737,4.856,12.828,7.228,19.148h15.488c0,0,3.044-0.295,3.044-2.917
	c0-2.62-2.917-2.663-2.917-2.663h-4.565c-1.395-0.042-6.256-1.226-6.214-8.412c0.042-7.187,8.201-6.468,8.201-6.468h10.525"/>
<path fill="none" stroke="#FF00FF" stroke-width="2" stroke-linecap="round" stroke-linejoin="round" stroke-miterlimit="10" d="
	M161.871,470.625h-9.412v3.382c0,1.268,2.734,2.663,4.468,2.663h11.718v-13.927c0.025-4.689,4.35-6.512,7.35-6.512
	s7.628,1.246,8.175,7.697c0.392,4.617-3.15,6.617-3.15,8.943c0,1.649,0.6,3.849,3.6,3.798l3.39,0.001"/>
<path fill="none" stroke="#FF00FF" stroke-width="2" stroke-linecap="round" stroke-linejoin="round" stroke-miterlimit="10" d="
	M162.971,460.649h-7.732c-1.734,0-3.086,1.395-3.086,2.662v2.96h9.531"/>
<path fill="none" stroke="#FF00FF" stroke-width="2" stroke-linecap="round" stroke-linejoin="round" stroke-miterlimit="10" d="
	M188.01,481.066h-3.39c-4.8,0-7.7-4.396-7.7-8.245c0-3.851,3.15-6.592,3.15-8.817c0-1.7-1.4-3.601-3.65-3.601
	s-3.575,1.001-3.575,3.501s0,17.12,0,17.12l-18.993,0.042c-3.381,0-6.467-3.806-6.467-7.017v-11.245c0-3.212,3.001-6.51,6.383-6.51
	h9.203"/>
</svg>
