<?xml version="1.0" encoding="utf-8"?>
<!-- Generator: Adobe Illustrator 15.1.0, SVG Export Plug-In . SVG Version: 6.00 Build 0)  -->
<!DOCTYPE svg PUBLIC "-//W3C//DTD SVG 1.1//EN" "http://www.w3.org/Graphics/SVG/1.1/DTD/svg11.dtd">
<svg version="1.1" id="Layer_1" xmlns="http://www.w3.org/2000/svg" xmlns:xlink="http://www.w3.org/1999/xlink" x="0px" y="0px"
	 width="595.3px" height="841.9px" viewBox="0 0 595.3 841.9" enable-background="new 0 0 595.3 841.9" xml:space="preserve">
<line fill="none" stroke="#FF00FF" stroke-width="3" stroke-miterlimit="10" x1="522.505" y1="442.188" x2="522.224" y2="483.052"/>
<polyline fill="none" stroke="#FF00FF" stroke-width="3" stroke-miterlimit="10" points="543.431,442.188 543.431,458.886 
	530.044,458.886 530.044,442.188 "/>
<polyline fill="none" stroke="#FF00FF" stroke-width="3" stroke-miterlimit="10" points="543.431,483.052 543.431,465.931 
	530.044,465.931 530.044,483.052 "/>
<line fill="none" stroke="#FF00FF" stroke-width="3" stroke-miterlimit="10" x1="477.345" y1="442.47" x2="514.828" y2="442.47"/>
<polyline fill="none" stroke="#FF00FF" stroke-width="3" stroke-miterlimit="10" points="514.828,449.938 504.257,449.938 
	503.906,482.841 "/>
<path fill="none" stroke="#FF00FF" stroke-width="3" stroke-miterlimit="10" d="M442.681,484.038c0,0,0.281-33.959,0.281-35.229
	c0-2.747,1.549-5.776,4.721-6.341c3.17-0.563,5.002,0.916,6.834,3.806c1.832,2.889,16.697,31.985,16.275,30.084v-34.101"/>
<path fill="none" stroke="#FF00FF" stroke-width="3" stroke-miterlimit="10" d="M449.164,483.968l0.352-33.255
	c0,0,13.527,27.268,15.432,30.155c1.902,2.888,4.086,4.509,6.834,3.804c2.748-0.704,4.859-4.086,5.07-6.834
	c0.213-2.748,0.354-18.248,0.354-27.9h19.234l-0.354,32.903"/>
<path fill="none" stroke="#FF00FF" stroke-width="3" stroke-miterlimit="10" d="M397.308,442.117h-17.262
	c0,0-13.316-1.197-13.387,10.567c-0.072,11.766,7.891,13.739,10.146,13.81h7.468c0,0,4.791,0.071,4.791,4.368
	c0,4.298-5.002,4.792-5.002,4.792h-19.234"/>
<path fill="none" stroke="#FF00FF" stroke-width="3" stroke-miterlimit="10" d="M397.238,449.092h-18.389c0,0-4.791,0-4.791,5.213
	c0,5.215,4.932,4.58,4.932,4.58h7.045c0,0,10.498,0,10.498,11.344c0.07,12.471-10.498,12.752-10.498,12.752h-21.137"/>
<path fill="none" stroke="#FF00FF" stroke-width="3" stroke-miterlimit="10" d="M108.089,442.047H90.546
	c0,0-13.598-1.198-13.668,10.779c-0.07,11.978,8.032,13.95,10.357,14.021h7.609c0,0,4.861,0.07,4.861,4.438
	c0,4.369-5.073,4.861-5.073,4.861H75.046"/>
<path fill="none" stroke="#FF00FF" stroke-width="3" stroke-miterlimit="10" d="M108.019,449.163H89.278c0,0-4.861,0-4.861,5.284
	c0,5.285,5.002,4.649,5.002,4.649h7.187c0,0,10.709,0,10.709,11.556c0.071,12.682-10.709,12.964-10.709,12.964h-21.56"/>
<path fill="none" stroke="#FF00FF" stroke-width="3" stroke-miterlimit="10" d="M593.876,442.117h-17.189
	c0,0-13.316-1.197-13.387,10.567c-0.072,11.767,7.82,13.739,10.074,13.81h7.469c0,0,4.791,0.071,4.791,4.368
	c0,4.298-5.002,4.792-5.002,4.792H550.83v-33.467"/>
<path fill="none" stroke="#FF00FF" stroke-width="3" stroke-miterlimit="10" d="M593.806,449.092h-18.389c0,0-4.791,0-4.791,5.213
	c0,5.215,4.932,4.58,4.932,4.58h7.047c0,0,10.498,0,10.498,11.344c0.07,12.471-10.498,12.752-10.498,12.752H550.83"/>
<polyline fill="none" stroke="#FF00FF" stroke-width="3" stroke-miterlimit="10" points="406.396,442.47 418.444,463.605 
	406.396,483.686 "/>
<polyline fill="none" stroke="#FF00FF" stroke-width="3" stroke-miterlimit="10" points="414.427,442.47 422.46,457.054 
	431.478,442.47 "/>
<line fill="none" stroke="#FF00FF" stroke-width="3" stroke-miterlimit="10" x1="439.509" y1="442.47" x2="414.427" y2="483.686"/>
<line fill="none" stroke="#FF00FF" stroke-width="3" stroke-miterlimit="10" x1="309.943" y1="443.033" x2="309.943" y2="483.403"/>
<path fill="none" stroke="#FF00FF" stroke-width="3" stroke-miterlimit="10" d="M281.832,443.033c0,0-20.432-0.211-25.223,0.353
	c-3.734,0.423-17.05,4.228-17.05,20.079c0,15.854,15.5,19.868,20.291,20.221c3.593,0.282,10.427,0,10.427,0V465.65"/>
<path fill="none" stroke="#FF00FF" stroke-width="3" stroke-miterlimit="10" d="M281.832,483.403v-32.832c0,0-16.91,0-21.912,0.211
	s-12.611,3.312-13.246,11.907c-0.634,8.595,7.116,11.977,9.864,12.682c2.748,0.704,6.552,0.562,6.552,0.562l0.141-10.285"/>
<polyline fill="none" stroke="#FF00FF" stroke-width="3" stroke-miterlimit="10" points="302.757,443.033 302.757,459.73 
	289.441,459.73 289.441,443.033 "/>
<polyline fill="none" stroke="#FF00FF" stroke-width="3" stroke-miterlimit="10" points="302.757,483.403 302.757,466.776 
	289.441,466.776 289.441,483.403 "/>
<line fill="none" stroke="#FF00FF" stroke-width="3" stroke-miterlimit="10" x1="317.975" y1="443.526" x2="347.003" y2="443.526"/>
<polyline fill="none" stroke="#FF00FF" stroke-width="3" stroke-miterlimit="10" points="317.975,450.995 328.542,450.995 
	328.542,483.403 "/>
<polyline fill="none" stroke="#FF00FF" stroke-width="3" stroke-miterlimit="10" points="347.003,450.995 336.365,450.995 
	336.365,483.403 "/>
<line fill="none" stroke="#FF00FF" stroke-width="3" stroke-miterlimit="10" x1="224.34" y1="443.315" x2="224.34" y2="483.122"/>
<line fill="none" stroke="#FF00FF" stroke-width="3" stroke-miterlimit="10" x1="231.316" y1="443.315" x2="231.316" y2="483.122"/>
<path fill="none" stroke="#FF00FF" stroke-width="3" stroke-miterlimit="10" d="M191.649,442.399v28.604
	c0,0-0.353,12.399,14.443,12.399h9.3"/>
<path fill="none" stroke="#FF00FF" stroke-width="3" stroke-miterlimit="10" d="M197.708,442.399v24.095
	c0,0-0.775,10.427,8.877,10.427h8.877"/>
<path fill="none" stroke="#FF00FF" stroke-width="3" stroke-miterlimit="10" d="M1.42,440.92v29.873c0,0-0.352,12.611,14.726,12.611
	l21.911-0.211l12.541-33.186l8.807,26.28h-7.468"/>
<path fill="none" stroke="#FF00FF" stroke-width="3" stroke-miterlimit="10" d="M7.621,440.92v25.223c0,0-0.775,10.64,9.019,10.64
	l16.486-0.143c3.945-10.215,10.568-26.982,12.4-31.704c1.832-4.721,8.524-4.791,10.146-0.704
	c1.62,4.087,14.795,39.243,14.795,39.243H51.584"/>
<path fill="none" stroke="#FF00FF" stroke-width="3" stroke-miterlimit="10" d="M137.188,465.79h-12.683v5.637
	c0,2.113,2.255,4.438,5.144,4.438h9.37"/>
<path fill="none" stroke="#FF00FF" stroke-width="3" stroke-miterlimit="10" d="M148.743,458.533c4.861,0,11.202,0.493,11.202-4.438
	c0-4.931-3.734-4.791-11.202-4.791l-21.208-0.141c-2.889,0-5.143,2.325-5.143,4.438v4.933h12.682"/>
<path fill="none" stroke="#FF00FF" stroke-width="3" stroke-miterlimit="10" d="M139.019,483.192h-12.893
	c-5.636,0-10.779-6.342-10.779-11.695v-18.741c0-5.354,5.002-10.85,10.638-10.85h22.828c11.695,0,18.812,0.141,19.657,11.414
	c0.705,9.863-5.425,12.61-19.657,12.399c18.177,2.607,23.109,18.671,23.109,18.671"/>
<path fill="none" stroke="#FF00FF" stroke-width="3" stroke-miterlimit="10" d="M146.628,473.54
	c9.582,1.339,15.43,7.328,16.839,12.26"/>
</svg>
