<?xml version="1.0" encoding="utf-8"?>
<!-- Generator: Adobe Illustrator 15.1.0, SVG Export Plug-In . SVG Version: 6.00 Build 0)  -->
<!DOCTYPE svg PUBLIC "-//W3C//DTD SVG 1.1//EN" "http://www.w3.org/Graphics/SVG/1.1/DTD/svg11.dtd">
<svg version="1.1" xmlns="http://www.w3.org/2000/svg" xmlns:xlink="http://www.w3.org/1999/xlink" x="0px" y="0px" width="595.3px"
	 height="841.9px" viewBox="0 0 595.3 841.9" enable-background="new 0 0 595.3 841.9" xml:space="preserve">
<g id="Layer_2" display="none">
	
		<image display="inline" overflow="visible" width="2242" height="1955" xlink:href="MarischalCollege.jpg"  transform="matrix(0.2645 0 0 0.2645 1.103 183.4541)">
	</image>
	
		<image display="inline" overflow="visible" width="2242" height="1955" xlink:href="MarischalCollege.jpg"  transform="matrix(0.2647 0 0 0.2645 0.811 183.4541)">
	</image>
</g>
<g id="Layer_3" display="none">
	<g display="inline">
		<path d="M170.864,466.246v4.865l0.317-0.529l-0.159,0.054c-0.687,0.053-1.427,0.104-2.115,0.104h-0.952
			c-4.125,0-7.403-3.172-7.403-7.296c0-1.798,0.529-3.016,1.586-4.389c0.317-0.424,0.688-0.793,1.005-1.217
			c1.428-1.691,2.908-3.648,2.908-7.297c0-1.799-0.317-3.755-1.269-5.395c-2.009-3.385-5.552-5.604-9.518-5.604
			c-5.023,0-8.831,3.172-10.311,7.773c-0.265,0.793-0.423,1.321-0.423,2.167v5.236c0,6.238,0.159,12.479,0.159,18.718v4.389
			c-1.269,0.054-2.591,0.054-3.86,0.054c-0.105,0-0.211,0-0.317,0c0,0-0.053,0-0.159-0.054h-0.106
			c-0.105-0.21-0.264-24.218-0.264-26.386c0-1.48,0.105-2.908,0.317-4.39c0.106-0.104,0.106-0.264,0.159-0.423
			c0.053-0.158,0.105-0.316,0.105-0.423c2.062-6.662,7.509-11.157,14.542-11.157c8.725,0,15.388,6.77,15.388,15.494
			c0,0.422,0,0.793-0.053,1.215c-0.053,0.371-0.106,0.741-0.212,1.111c-0.105,0.424-0.211,0.899-0.211,1.375
			c0,0.105,0,0.211,0,0.317c-0.317,0.581-0.793,1.851-0.899,2.325c-0.158,0.213-0.211,0.425-0.317,0.635
			c-0.106,0.213-0.212,0.371-0.37,0.583c-0.106,0.264-0.317,0.634-0.582,1.005l-0.37,0.527c0,0-0.159,0.159-0.159,0.266v-0.053
			c-0.159,0.211-0.317,0.422-0.528,0.688c-0.741,0.846-1.64,1.744-1.64,2.96c0,0.793,0.74,2.75,2.168,2.75H170.864z M170.97,477.616
			c0.052-0.054,0.105,0,0.105-0.107c-0.634,0-1.534,0.107-2.432,0.107h-1.111c-6.557,0-12.638-5.183-13.695-11.634
			c-0.159-0.847-0.105-1.64-0.105-2.486c0-0.846-0.053-1.69,0.105-2.484c0.264-1.745,1.111-3.913,2.115-5.341
			c0.211-0.317,0.476-0.635,0.793-1.005c0.371-0.423,0.74-0.794,1.058-1.216c0.688-0.794,1.375-1.852,1.375-2.908
			c0-2.115-1.533-4.019-3.807-4.019c-1.587,0-2.961,0.845-3.648,2.272c-0.053,0.159-0.318,0.899-0.318,1.059v5.393
			c0,5.977,0.159,12.004,0.159,17.979v4.548h-4.442c0-6.134-0.212-12.321-0.265-18.455c-0.053-2.697-0.159-5.393-0.159-8.143
			c0-1.164,0.053-2.274,0.37-3.279c0.37-1.057,0.741-2.062,1.428-2.803c1.903-2.168,3.86-3.277,6.716-3.277
			c4.865,0,8.619,4.018,8.619,8.883c0,2.643-1.27,4.23-2.644,5.977c-0.74,0.897-1.428,1.85-1.957,2.854
			c-0.582,1.058-0.952,2.275-0.952,3.807c0,3.332,1.586,6.559,4.601,8.304c1.11,0.634,2.591,1.321,4.019,1.427
			c1.269,0.105,2.644,0.105,3.966,0.105C170.864,474.653,170.97,476.135,170.97,477.616z"/>
	</g>
</g>
<g id="Layer_1" display="none">
	
		<line display="inline" fill="none" stroke="#FF00FF" stroke-width="2" stroke-linecap="round" stroke-linejoin="round" stroke-miterlimit="10" x1="487.272" y1="454.671" x2="487.129" y2="479.188"/>
	
		<polyline display="inline" fill="none" stroke="#FF00FF" stroke-width="2" stroke-linecap="round" stroke-linejoin="round" stroke-miterlimit="10" points="
		497.816,454.671 497.816,464.689 491.072,464.689 491.072,454.671 	"/>
	
		<polyline display="inline" fill="none" stroke="#FF00FF" stroke-width="2" stroke-linecap="round" stroke-linejoin="round" stroke-miterlimit="10" points="
		497.816,479.188 497.816,468.917 491.072,468.917 491.072,479.188 	"/>
	
		<line display="inline" fill="none" stroke="#FF00FF" stroke-width="2" stroke-linecap="round" stroke-linejoin="round" stroke-miterlimit="10" x1="464.515" y1="454.84" x2="483.402" y2="454.84"/>
	
		<polyline display="inline" fill="none" stroke="#FF00FF" stroke-width="2" stroke-linecap="round" stroke-linejoin="round" stroke-miterlimit="10" points="
		483.402,459.32 478.076,459.32 477.9,479.062 	"/>
	
		<path display="inline" fill="none" stroke="#FF00FF" stroke-width="2" stroke-linecap="round" stroke-linejoin="round" stroke-miterlimit="10" d="
		M447.048,479.78c0,0,0.141-20.375,0.141-21.137c0-1.648,0.781-3.466,2.379-3.805c1.598-0.338,2.521,0.549,3.444,2.283
		c0.923,1.734,8.413,19.191,8.2,18.051v-20.461"/>
	
		<path display="inline" fill="none" stroke="#FF00FF" stroke-width="2" stroke-linecap="round" stroke-linejoin="round" stroke-miterlimit="10" d="
		M450.314,479.739l0.177-19.953c0,0,6.817,16.36,7.776,18.093s2.061,2.705,3.445,2.282c1.385-0.422,2.447-2.451,2.555-4.101
		c0.107-1.648,0.178-10.948,0.178-16.74h9.693l-0.18,19.742"/>
	
		<path display="inline" fill="none" stroke="#FF00FF" stroke-width="2" stroke-linecap="round" stroke-linejoin="round" stroke-miterlimit="10" d="
		M522.032,454.628h-8.661c0,0-6.711-0.718-6.746,6.34c-0.037,7.061,3.94,8.244,5.076,8.287h3.764c0,0,2.414,0.043,2.414,2.621
		s-2.521,2.875-2.521,2.875h-13.813v-20.08"/>
	
		<path display="inline" fill="none" stroke="#FF00FF" stroke-width="2" stroke-linecap="round" stroke-linejoin="round" stroke-miterlimit="10" d="
		M521.997,458.813h-9.267c0,0-2.414,0-2.414,3.127c0,3.129,2.484,2.748,2.484,2.748h3.552c0,0,5.29,0,5.29,6.807
		c0.035,7.482-5.29,7.652-5.29,7.652h-14.808"/>
	
		<path display="inline" fill="none" stroke="#FF00FF" stroke-width="2" stroke-linecap="round" stroke-linejoin="round" stroke-miterlimit="10" d="
		M429.115,479.569l6.07-12.048l-4.169-8.708h-13.768c0,0-2.413,0-2.413,3.127c0,3.129,2.484,2.748,2.484,2.748h3.55
		c0,0,5.29,0,5.29,6.807c0.035,7.482-5.29,7.652-5.29,7.652h-10.651"/>
	
		<path display="inline" fill="none" stroke="#FF00FF" stroke-width="2" stroke-linecap="round" stroke-linejoin="round" stroke-miterlimit="10" d="
		M441.753,454.84l-4.545,8.751l-4.046-8.982l-15.312,0.02c0,0-6.709-0.718-6.744,6.34c-0.037,7.061,3.976,8.244,5.111,8.287h3.764
		c0,0,2.414,0.043,2.414,2.621s-2.521,2.875-2.521,2.875h-9.692"/>
	
		<line display="inline" fill="none" stroke="#FF00FF" stroke-width="2" stroke-linecap="round" stroke-linejoin="round" stroke-miterlimit="10" x1="445.8" y1="454.84" x2="433.161" y2="479.569"/>
	
		<line display="inline" fill="none" stroke="#FF00FF" stroke-width="2" stroke-linecap="round" stroke-linejoin="round" stroke-miterlimit="10" x1="325.335" y1="455.178" x2="325.335" y2="479.399"/>
	
		<path display="inline" fill="none" stroke="#FF00FF" stroke-width="2" stroke-linecap="round" stroke-linejoin="round" stroke-miterlimit="10" d="
		M308.469,455.178c0,0-12.269-0.126-15.147,0.212c-2.24,0.254-10.23,2.537-10.23,12.047c0,9.514,9.3,11.922,12.174,12.133
		c2.165,0.17,6.27,0,6.27,0v-10.821"/>
	
		<path display="inline" fill="none" stroke="#FF00FF" stroke-width="2" stroke-linecap="round" stroke-linejoin="round" stroke-miterlimit="10" d="
		M308.469,479.399V459.7c0,0-10.146,0-13.161,0.127c-3.001,0.127-7.566,1.987-7.948,7.145c-0.38,5.156,4.27,7.186,5.918,7.609
		c1.648,0.422,3.94,0.336,3.94,0.336l0.084-6.17"/>
	
		<polyline display="inline" fill="none" stroke="#FF00FF" stroke-width="2" stroke-linecap="round" stroke-linejoin="round" stroke-miterlimit="10" points="
		321.025,455.178 321.025,465.196 313.035,465.196 313.035,455.178 	"/>
	
		<polyline display="inline" fill="none" stroke="#FF00FF" stroke-width="2" stroke-linecap="round" stroke-linejoin="round" stroke-miterlimit="10" points="
		321.025,479.399 321.025,469.424 313.035,469.424 313.035,479.399 	"/>
	
		<line display="inline" fill="none" stroke="#FF00FF" stroke-width="2" stroke-linecap="round" stroke-linejoin="round" stroke-miterlimit="10" x1="330.155" y1="455.474" x2="347.572" y2="455.474"/>
	
		<polyline display="inline" fill="none" stroke="#FF00FF" stroke-width="2" stroke-linecap="round" stroke-linejoin="round" stroke-miterlimit="10" points="
		330.155,459.955 336.496,459.955 336.496,479.399 	"/>
	
		<polyline display="inline" fill="none" stroke="#FF00FF" stroke-width="2" stroke-linecap="round" stroke-linejoin="round" stroke-miterlimit="10" points="
		347.572,459.955 341.189,459.955 341.189,479.399 	"/>
	
		<line display="inline" fill="none" stroke="#FF00FF" stroke-width="2" stroke-linecap="round" stroke-linejoin="round" stroke-miterlimit="10" x1="273.96" y1="455.347" x2="273.96" y2="479.231"/>
	
		<line display="inline" fill="none" stroke="#FF00FF" stroke-width="2" stroke-linecap="round" stroke-linejoin="round" stroke-miterlimit="10" x1="278.146" y1="455.347" x2="278.146" y2="479.231"/>
	
		<path display="inline" fill="none" stroke="#FF00FF" stroke-width="2" stroke-linecap="round" stroke-linejoin="round" stroke-miterlimit="10" d="
		M254.346,454.798v17.162c0,0-0.212,7.439,8.666,7.439h5.58"/>
	
		<path display="inline" fill="none" stroke="#FF00FF" stroke-width="2" stroke-linecap="round" stroke-linejoin="round" stroke-miterlimit="10" d="
		M257.981,454.798v14.457c0,0-0.465,6.256,5.326,6.256h5.326"/>
	
		<path display="inline" fill="none" stroke="#FF00FF" stroke-width="2" stroke-linecap="round" stroke-linejoin="round" stroke-miterlimit="10" d="
		M79.208,453.91v17.924c0,0-0.211,7.566,8.836,7.566l10.204-0.126l7.524-19.912l6.861,20.166h20.084c0,0,6.468-0.17,6.425-7.779
		c0-6.934-6.425-6.934-6.425-6.934h-4.312c0,0-3.001,0.382-3.001-2.789c0-3.17,2.917-3.17,2.917-3.17h11.245"/>
	
		<path display="inline" fill="none" stroke="#FF00FF" stroke-width="2" stroke-linecap="round" stroke-linejoin="round" stroke-miterlimit="10" d="
		M117.694,479.442"/>
	
		<path display="inline" fill="none" stroke="#FF00FF" stroke-width="2" stroke-linecap="round" stroke-linejoin="round" stroke-miterlimit="10" d="
		M82.929,453.91v15.134c0,0-0.465,6.384,5.412,6.384l6.949-0.086c2.367-6.129,6.34-16.188,7.44-19.022
		c1.099-2.832,5.114-2.875,6.087-0.422c0.688,1.737,4.856,12.828,7.228,19.148h15.488c0,0,3.044-0.295,3.044-2.917
		c0-2.62-2.917-2.663-2.917-2.663h-4.565c-1.395-0.042-6.256-1.226-6.214-8.412c0.042-7.187,8.201-6.468,8.201-6.468h10.525"/>
	
		<path display="inline" fill="none" stroke="#FF00FF" stroke-width="2" stroke-linecap="round" stroke-linejoin="round" stroke-miterlimit="10" d="
		M159.168,468.832h-9.412v3.382c0,1.268,2.734,2.663,4.468,2.663h11.718V460.95c0.025-4.689,4.35-6.512,7.35-6.512
		s7.628,1.246,8.175,7.697c0.392,4.617-3.15,6.617-3.15,8.943c0,1.649,0.6,3.849,3.6,3.798l3.39,0.001"/>
	
		<path display="inline" fill="none" stroke="#FF00FF" stroke-width="2" stroke-linecap="round" stroke-linejoin="round" stroke-miterlimit="10" d="
		M160.268,458.856h-7.732c-1.734,0-3.086,1.395-3.086,2.662v2.96h9.531"/>
	
		<path display="inline" fill="none" stroke="#FF00FF" stroke-width="2" stroke-linecap="round" stroke-linejoin="round" stroke-miterlimit="10" d="
		M185.307,479.273h-3.39c-4.8,0-7.7-4.396-7.7-8.245c0-3.851,3.15-6.592,3.15-8.817c0-1.7-1.4-3.601-3.65-3.601
		s-3.575,1.001-3.575,3.501s0,17.12,0,17.12l-18.993,0.042c-3.381,0-6.467-3.806-6.467-7.017v-11.245c0-3.212,3.001-6.51,6.383-6.51
		h9.203"/>
</g>
<g id="Layer_4">
	
		<rect x="72.817" y="338.783" fill="none" stroke="#00FFFF" stroke-linecap="round" stroke-linejoin="round" stroke-miterlimit="10" width="120.667" height="15.333"/>
	
		<rect x="237.818" y="338.783" fill="none" stroke="#00FFFF" stroke-linecap="round" stroke-linejoin="round" stroke-miterlimit="10" width="120.662" height="15.333"/>
	
		<rect x="404.818" y="338.783" fill="none" stroke="#00FFFF" stroke-linecap="round" stroke-linejoin="round" stroke-miterlimit="10" width="120.666" height="15.333"/>
	<polyline fill="none" stroke="#00FFFF" stroke-linecap="round" stroke-linejoin="round" stroke-miterlimit="10" points="
		72.817,453.162 193.484,453.162 193.484,481.737 72.817,481.737 72.817,453.162 	"/>
	
		<rect x="237.818" y="453.162" fill="none" stroke="#00FFFF" stroke-linecap="round" stroke-linejoin="round" stroke-miterlimit="10" width="120.662" height="28.575"/>
	
		<rect x="404.818" y="453.162" fill="none" stroke="#00FFFF" stroke-linecap="round" stroke-linejoin="round" stroke-miterlimit="10" width="120.666" height="28.575"/>
	
		<rect x="72.817" y="573.162" fill="none" stroke="#00FFFF" stroke-linecap="round" stroke-linejoin="round" stroke-miterlimit="10" width="120.667" height="28.575"/>
	
		<rect x="237.818" y="573.162" fill="none" stroke="#00FFFF" stroke-linecap="round" stroke-linejoin="round" stroke-miterlimit="10" width="120.662" height="28.575"/>
	
		<rect x="404.818" y="573.162" fill="none" stroke="#00FFFF" stroke-linecap="round" stroke-linejoin="round" stroke-miterlimit="10" width="120.666" height="28.575"/>
</g>
</svg>
