<?xml version="1.0" encoding="utf-8"?>
<!-- Generator: Adobe Illustrator 15.1.0, SVG Export Plug-In . SVG Version: 6.00 Build 0)  -->
<!DOCTYPE svg PUBLIC "-//W3C//DTD SVG 1.1//EN" "http://www.w3.org/Graphics/SVG/1.1/DTD/svg11.dtd">
<svg version="1.1" id="Layer_4" xmlns="http://www.w3.org/2000/svg" xmlns:xlink="http://www.w3.org/1999/xlink" x="0px" y="0px"
	 width="595.3px" height="841.9px" viewBox="0 0 595.3 841.9" enable-background="new 0 0 595.3 841.9" xml:space="preserve">
<polyline fill="none" stroke="#00FFFF" stroke-linecap="round" stroke-linejoin="round" stroke-miterlimit="10" points="
	72.817,338.783 193.484,338.783 193.484,354.117 72.817,354.117 "/>
<line fill="none" stroke="#00FFFF" stroke-linecap="round" stroke-linejoin="round" stroke-miterlimit="10" x1="72.817" y1="354.117" x2="72.817" y2="338.783"/>
<polyline fill="none" stroke="#00FFFF" stroke-linecap="round" stroke-linejoin="round" stroke-miterlimit="10" points="
	237.818,338.783 358.48,338.783 358.48,354.117 237.818,354.117 "/>
<line fill="none" stroke="#00FFFF" stroke-linecap="round" stroke-linejoin="round" stroke-miterlimit="10" x1="237.818" y1="354.117" x2="237.818" y2="338.783"/>
<polyline fill="none" stroke="#00FFFF" stroke-linecap="round" stroke-linejoin="round" stroke-miterlimit="10" points="
	404.818,338.783 525.484,338.783 525.484,354.117 404.818,354.117 "/>
<line fill="none" stroke="#00FFFF" stroke-linecap="round" stroke-linejoin="round" stroke-miterlimit="10" x1="404.818" y1="354.117" x2="404.818" y2="338.783"/>
<line fill="none" stroke="#00FFFF" stroke-linecap="round" stroke-linejoin="round" stroke-miterlimit="10" x1="72.817" y1="481.737" x2="72.817" y2="453.162"/>
<polyline fill="none" stroke="#00FFFF" stroke-linecap="round" stroke-linejoin="round" stroke-miterlimit="10" points="
	72.817,453.162 193.484,453.162 193.484,481.737 72.817,481.737 "/>
<polyline fill="none" stroke="#00FFFF" stroke-linecap="round" stroke-linejoin="round" stroke-miterlimit="10" points="
	237.818,453.162 358.48,453.162 358.48,481.737 237.818,481.737 "/>
<line fill="none" stroke="#00FFFF" stroke-linecap="round" stroke-linejoin="round" stroke-miterlimit="10" x1="237.818" y1="481.737" x2="237.818" y2="453.162"/>
<polyline fill="none" stroke="#00FFFF" stroke-linecap="round" stroke-linejoin="round" stroke-miterlimit="10" points="
	404.818,453.162 525.484,453.162 525.484,481.737 404.818,481.737 "/>
<line fill="none" stroke="#00FFFF" stroke-linecap="round" stroke-linejoin="round" stroke-miterlimit="10" x1="404.818" y1="481.737" x2="404.818" y2="453.162"/>
<polyline fill="none" stroke="#00FFFF" stroke-linecap="round" stroke-linejoin="round" stroke-miterlimit="10" points="
	72.817,573.162 193.484,573.162 193.484,601.737 72.817,601.737 "/>
<line fill="none" stroke="#00FFFF" stroke-linecap="round" stroke-linejoin="round" stroke-miterlimit="10" x1="72.817" y1="601.737" x2="72.817" y2="573.162"/>
<polyline fill="none" stroke="#00FFFF" stroke-linecap="round" stroke-linejoin="round" stroke-miterlimit="10" points="
	237.818,573.162 358.48,573.162 358.48,601.737 237.818,601.737 "/>
<line fill="none" stroke="#00FFFF" stroke-linecap="round" stroke-linejoin="round" stroke-miterlimit="10" x1="237.818" y1="601.737" x2="237.818" y2="573.162"/>
<polyline fill="none" stroke="#00FFFF" stroke-linecap="round" stroke-linejoin="round" stroke-miterlimit="10" points="
	404.818,573.162 525.484,573.162 525.484,601.737 404.818,601.737 "/>
<line fill="none" stroke="#00FFFF" stroke-linecap="round" stroke-linejoin="round" stroke-miterlimit="10" x1="404.818" y1="601.737" x2="404.818" y2="573.162"/>
</svg>
