<?xml version="1.0" encoding="utf-8"?>
<!-- Generator: Adobe Illustrator 15.1.0, SVG Export Plug-In . SVG Version: 6.00 Build 0)  -->
<!DOCTYPE svg PUBLIC "-//W3C//DTD SVG 1.1//EN" "http://www.w3.org/Graphics/SVG/1.1/DTD/svg11.dtd">
<svg version="1.1" id="Layer_4" xmlns="http://www.w3.org/2000/svg" xmlns:xlink="http://www.w3.org/1999/xlink" x="0px" y="0px"
	 width="595.3px" height="841.9px" viewBox="0 0 595.3 841.9" enable-background="new 0 0 595.3 841.9" xml:space="preserve">
<polyline fill="none" stroke="#00FFFF" stroke-linecap="round" stroke-linejoin="round" stroke-miterlimit="10" points="
	72.817,338.529 193.484,338.529 193.484,355.082 72.817,355.082 "/>
<line fill="none" stroke="#00FFFF" stroke-linecap="round" stroke-linejoin="round" stroke-miterlimit="10" x1="72.817" y1="355.082" x2="72.817" y2="338.529"/>
<polyline fill="none" stroke="#00FFFF" stroke-linecap="round" stroke-linejoin="round" stroke-miterlimit="10" points="
	237.818,338.529 358.48,338.529 358.48,355.082 237.818,355.082 "/>
<line fill="none" stroke="#00FFFF" stroke-linecap="round" stroke-linejoin="round" stroke-miterlimit="10" x1="237.818" y1="355.082" x2="237.818" y2="338.529"/>
<polyline fill="none" stroke="#00FFFF" stroke-linecap="round" stroke-linejoin="round" stroke-miterlimit="10" points="
	404.818,338.529 525.484,338.529 525.484,355.082 404.818,355.082 "/>
<line fill="none" stroke="#00FFFF" stroke-linecap="round" stroke-linejoin="round" stroke-miterlimit="10" x1="404.818" y1="355.082" x2="404.818" y2="338.529"/>
<line fill="none" stroke="#00FFFF" stroke-linecap="round" stroke-linejoin="round" stroke-miterlimit="10" x1="72.817" y1="492.838" x2="72.817" y2="461.99"/>
<polyline fill="none" stroke="#00FFFF" stroke-linecap="round" stroke-linejoin="round" stroke-miterlimit="10" points="
	72.817,461.99 193.484,461.99 193.484,492.838 72.817,492.838 "/>
<polyline fill="none" stroke="#00FFFF" stroke-linecap="round" stroke-linejoin="round" stroke-miterlimit="10" points="
	237.818,461.99 358.48,461.99 358.48,492.838 237.818,492.838 "/>
<line fill="none" stroke="#00FFFF" stroke-linecap="round" stroke-linejoin="round" stroke-miterlimit="10" x1="237.818" y1="492.838" x2="237.818" y2="461.99"/>
<polyline fill="none" stroke="#00FFFF" stroke-linecap="round" stroke-linejoin="round" stroke-miterlimit="10" points="
	404.818,461.99 525.484,461.99 525.484,492.838 404.818,492.838 "/>
<line fill="none" stroke="#00FFFF" stroke-linecap="round" stroke-linejoin="round" stroke-miterlimit="10" x1="404.818" y1="492.838" x2="404.818" y2="461.99"/>
<polyline fill="none" stroke="#00FFFF" stroke-linecap="round" stroke-linejoin="round" stroke-miterlimit="10" points="
	72.817,588.938 193.484,588.938 193.484,619.786 72.817,619.786 "/>
<line fill="none" stroke="#00FFFF" stroke-linecap="round" stroke-linejoin="round" stroke-miterlimit="10" x1="72.817" y1="619.786" x2="72.817" y2="588.938"/>
<polyline fill="none" stroke="#00FFFF" stroke-linecap="round" stroke-linejoin="round" stroke-miterlimit="10" points="
	237.818,588.938 358.48,588.938 358.48,619.786 237.818,619.786 "/>
<line fill="none" stroke="#00FFFF" stroke-linecap="round" stroke-linejoin="round" stroke-miterlimit="10" x1="237.818" y1="619.786" x2="237.818" y2="588.938"/>
<polyline fill="none" stroke="#00FFFF" stroke-linecap="round" stroke-linejoin="round" stroke-miterlimit="10" points="
	404.818,588.938 525.484,588.938 525.484,619.786 404.818,619.786 "/>
<line fill="none" stroke="#00FFFF" stroke-linecap="round" stroke-linejoin="round" stroke-miterlimit="10" x1="404.818" y1="619.786" x2="404.818" y2="588.938"/>
</svg>
